<svg width="224" height="32" viewBox="0 0 224 32" fill="none" xmlns="http://www.w3.org/2000/svg">
<circle cx="16" cy="16" r="16" fill="#0D28A6"/>
<path d="M20.9999 7.66675H18.4999C17.3949 7.66675 16.335 8.10573 15.5536 8.88714C14.7722 9.66854 14.3333 10.7283 14.3333 11.8334V14.3334H11.8333V17.6667H14.3333V24.3334H17.6666V17.6667H20.1666L20.9999 14.3334H17.6666V11.8334C17.6666 11.6124 17.7544 11.4004 17.9107 11.2442C18.0669 11.0879 18.2789 11.0001 18.4999 11.0001H20.9999V7.66675Z" stroke="white" stroke-linecap="round" stroke-linejoin="round"/>
<circle cx="64" cy="16" r="16" fill="#0D28A6"/>
<path d="M68.1667 7.66675H59.8334C57.5322 7.66675 55.6667 9.53223 55.6667 11.8334V20.1667C55.6667 22.4679 57.5322 24.3334 59.8334 24.3334H68.1667C70.4679 24.3334 72.3334 22.4679 72.3334 20.1667V11.8334C72.3334 9.53223 70.4679 7.66675 68.1667 7.66675Z" stroke="white" stroke-linecap="round" stroke-linejoin="round"/>
<path d="M67.3333 15.475C67.4361 16.1685 67.3176 16.8769 66.9947 17.4992C66.6718 18.1215 66.1609 18.6262 65.5346 18.9414C64.9083 19.2566 64.1986 19.3663 63.5064 19.2549C62.8142 19.1436 62.1747 18.8167 61.679 18.321C61.1832 17.8252 60.8564 17.1857 60.745 16.4935C60.6336 15.8013 60.7433 15.0916 61.0585 14.4653C61.3737 13.8391 61.8784 13.3281 62.5007 13.0052C63.1231 12.6823 63.8314 12.5638 64.5249 12.6667C65.2324 12.7716 65.8873 13.1012 66.393 13.6069C66.8987 14.1126 67.2283 14.7676 67.3333 15.475Z" stroke="white" stroke-linecap="round" stroke-linejoin="round"/>
<path d="M68.5833 11.4167H68.5916" stroke="white" stroke-linecap="round" stroke-linejoin="round"/>
<circle cx="112" cy="16" r="16" fill="#0D28A6"/>
<path d="M121.167 8.50008C120.369 9.06298 119.485 9.4935 118.55 9.77508C118.048 9.198 117.381 8.78899 116.639 8.60335C115.897 8.41771 115.116 8.46441 114.402 8.73712C113.687 9.00984 113.074 9.49541 112.644 10.1282C112.215 10.7609 111.99 11.5104 112 12.2751V13.1084C110.535 13.1464 109.084 12.8216 107.776 12.163C106.467 11.5043 105.342 10.5323 104.5 9.33341C104.5 9.33341 101.167 16.8334 108.667 20.1667C106.95 21.3317 104.906 21.9159 102.833 21.8334C110.333 26.0001 119.5 21.8334 119.5 12.2501C119.499 12.018 119.477 11.7864 119.433 11.5584C120.284 10.7197 120.884 9.66067 121.167 8.50008V8.50008Z" stroke="white" stroke-linecap="round" stroke-linejoin="round"/>
<circle cx="160" cy="16" r="16" fill="#0D28A6"/>
<path d="M153.333 9.33325H166.667C167.583 9.33325 168.333 10.0833 168.333 10.9999V20.9999C168.333 21.9166 167.583 22.6666 166.667 22.6666H153.333C152.417 22.6666 151.667 21.9166 151.667 20.9999V10.9999C151.667 10.0833 152.417 9.33325 153.333 9.33325Z" stroke="white" stroke-linecap="round" stroke-linejoin="round"/>
<path d="M168.333 11L160 16.8333L151.667 11" stroke="white" stroke-linecap="round" stroke-linejoin="round"/>
<circle cx="208" cy="16" r="16" fill="#0D28A6"/>
<path d="M211.333 15.1667V11.8334M215.5 7.66675H200.5V21.0001H204.667V24.3334L208 21.0001H212.167L215.5 17.6667V7.66675ZM207.167 15.1667V11.8334V15.1667Z" stroke="white" stroke-linecap="round" stroke-linejoin="round"/>
</svg>
